<svg width="24" height="24" viewBox="0 0 24 24" fill="none" xmlns="http://www.w3.org/2000/svg">
<path d="M11.9949 4.00001C10.4981 3.99796 9.03083 4.41583 7.75975 5.20613C6.48867 5.99643 5.46479 7.12747 4.80449 8.47067C4.14418 9.81388 3.87393 11.3154 4.02445 12.8045C4.17497 14.2937 4.74023 15.7107 5.65598 16.8946C6.57173 18.0785 7.80123 18.9818 9.20475 19.5018C10.6083 20.0217 12.1295 20.1375 13.5955 19.836C15.0616 19.5344 16.4137 18.8277 17.498 17.796C18.5824 16.7644 19.3557 15.4492 19.7299 14H17.6489C17.2822 15.0372 16.6373 15.9536 15.7849 16.6491C14.9325 17.3445 13.9053 17.7922 12.8156 17.9432C11.7259 18.0942 10.6157 17.9427 9.60626 17.5053C8.59685 17.0679 7.72714 16.3613 7.0922 15.4629C6.45726 14.5646 6.08154 13.5089 6.00612 12.4114C5.9307 11.3138 6.15847 10.2167 6.66454 9.2399C7.17062 8.2631 7.9355 7.44424 8.87558 6.87283C9.81566 6.30143 10.8947 5.99948 11.9949 6.00001C12.7817 6.00116 13.5605 6.15917 14.2856 6.4648C15.0107 6.77043 15.6676 7.21754 16.2179 7.78001L12.9999 11H19.9999V4.00001L17.6489 6.35001C16.908 5.60469 16.0271 5.01333 15.0567 4.61001C14.0863 4.20668 13.0457 3.99937 11.9949 4.00001Z" fill="black"/>
</svg>
